Simulation
nRows=45
nColumns=15
endheader
time  TH_x TH_y TH_z SC_y  SC_z  SC_x  AC_y  AC_z  AC_x  GH_y  GH_z  GH_yy  EL_x  PS_y
1.55  0.000000  0.000000  0.000000  -34.22784974855409  5.29361454731534  78.45106083052711  45.51584399587782  -36.37716963967319  -37.93260036078801  18.869621425927097  55.99006759314538  -14.141087597667148  17.961868835317766  0.000000
1.581  0.000000  0.000000  0.000000  -34.68092287348882  5.585297571399782  78.41624175542162  45.972942711398005  -35.914672945500804  -36.862532118009185  18.68325045365137  56.47448697015134  -14.062908352194864  17.933844115150723  0.000000
1.612  0.000000  0.000000  0.000000  -35.10630061864504  5.831794807683683  78.20404381782669  46.508140759758156  -35.44298167067628  -35.695803772471436  18.44587943838285  56.87883158489706  -13.91721272631399  17.918018833612816  0.000000
1.643  0.000000  0.000000  0.000000  -35.5080833840873  6.019977176365906  77.78935108899275  47.1527246856452  -34.93571941200542  -34.40046276966452  18.152908561828124  57.1725145990751  -13.716577168204532  17.926786493186363  0.000000
1.674  0.000000  0.000000  0.000000  -35.90698745133041  6.157155269108839  77.15813021563798  47.943521072252786  -34.3549297301036  -32.92656970083855  17.807151913044578  57.304386175285  -13.465566246474934  17.97302246167569  0.000000
1.705  0.000000  0.000000  0.000000  -36.33972652274228  6.278375682789674  76.27328669105569  48.90163988048383  -33.66084758759579  -31.17877257033163  17.411866666080474  57.25083655717058  -13.130978133161387  18.042983576682975  0.000000
1.736  0.000000  0.000000  0.000000  -36.812342343956246  6.473015805816385  75.05483671341243  50.02774316154777  -32.775671798982835  -29.04061037125872  16.91376827045339  56.98577447051344  -12.64792177168941  18.143953652774755  0.000000
1.767  0.000000  0.000000  0.000000  -37.28722161119866  6.86098850855191  73.42493905225403  51.27801620901891  -31.618800420338093  -26.366767269225527  16.184782972779992  56.487809795396345  -11.924955537329254  18.241421226490214  0.000000
1.798  0.000000  0.000000  0.000000  -37.64425589546858  7.698317833108592  71.32343796905488  52.46828975184744  -30.071127670473494  -23.033597914690617  14.990453287190498  55.664023452342306  -10.812801630632993  18.32635944272507  0.000000
1.829  0.000000  0.000000  0.000000  -37.76415359886294  9.18938412778452  68.70066842589914  53.44883914776743  -27.906098626710648  -18.853978789804717  13.073039318451983  54.33369646432901  -9.168292202248631  18.30055768974349  0.000000
1.8599999999999999  0.000000  0.000000  0.000000  -37.53893096609469  11.743857098322568  65.17279349324194  53.831685202473736  -24.70268522013962  -13.527732620848312  10.171842612092503  52.29246949670166  -6.816528585392955  18.148898775567037  0.000000
1.891  0.000000  0.000000  0.000000  -36.379172326772846  15.61658776176323  59.785984578918004  52.8689198116352  -19.4283979657326  -6.815545458736334  6.099997029599358  49.18415227671882  -3.791205313214672  17.662318419502512  0.000000
1.922  0.000000  0.000000  0.000000  -33.68334793051044  20.037133009940348  51.18631218994519  50.095987480076715  -12.107757427360138  1.4158406531845165  1.3062714275710836  45.985337089310775  -0.71111056641043  16.968515740481628  0.000000
1.953  0.000000  0.000000  0.000000  -30.615950580718838  23.13569134095792  38.173385664880215  47.14857119300167  -3.5427975796380444  10.978107463769883  -1.6576262021501262  44.36280346073574  1.1555146815329307  16.677137638191613  0.000000
1.984  0.000000  0.000000  0.000000  -28.81250607311072  23.08700098068648  21.17072465433434  45.5223678854859  7.529706892270982  20.889508821716046  -0.9929137341740004  43.862081147659204  0.6843693494566961  16.993023057116105  0.000000
2.015  0.000000  0.000000  0.000000  -28.394634114685836  20.021926025756066  3.379887735203706  43.36065184445745  20.329093633201968  29.517868831797713  2.832074735749966  43.85336855118721  -1.9590665343479399  17.731366601991418  0.000000
2.046  0.000000  0.000000  0.000000  -28.856688127084688  15.922720333268675  -11.58706594995793  39.226434672311505  31.270299914397086  36.41042962653016  8.341285821262295  44.121476593972986  -5.6794014031035305  18.419824672370975  0.000000
2.077  0.000000  0.000000  0.000000  -29.57300797490849  12.662396706780966  -22.981356709341465  34.110827578364365  38.749092397861034  42.30882475631946  13.389123655896523  44.35102194716295  -9.43445645387693  18.78291488318047  0.000000
2.108  0.000000  0.000000  0.000000  -30.057210627416584  10.698867602892317  -31.621123930221824  29.018004756386567  43.108280373460794  47.67384230815991  17.039528220023705  44.42258197914696  -12.537882944358739  18.876827587489664  0.000000
2.139  0.000000  0.000000  0.000000  -30.26569418885579  9.580029538692179  -38.21137465525076  24.563474638221738  45.58590822267842  52.48296200139582  19.295451302546308  44.05625441289611  -14.764382429551947  18.822027361357136  0.000000
2.17  0.000000  0.000000  0.000000  -30.29887065522535  8.86588574943046  -43.42829524168039  21.005553858978246  47.16098854245946  56.60757428655711  20.586776256441258  43.366113502883735  -16.239967446831756  18.76289844308444  0.000000
2.201  0.000000  0.000000  0.000000  -30.257461468729506  8.345597725191299  -47.61604692699014  18.27784459574107  48.24188163562723  59.99309991600181  21.306206310917563  42.46966048154593  -17.139320858532205  18.806047776731372  0.000000
2.232  0.000000  0.000000  0.000000  -30.21582989956773  7.910409219272151  -50.87399393297448  16.415548754257053  49.056997251394364  62.528968577720946  21.557243284325022  41.40275864176773  -17.61563370061938  18.887029822697382  0.000000
2.263  0.000000  0.000000  0.000000  -30.191950383771317  7.532512293332054  -53.215265877283024  15.40689713010785  49.70613284735766  64.16927983893834  21.39753028293325  40.11666410480934  -17.78840395035164  18.954697239835603  0.000000
2.294  0.000000  0.000000  0.000000  -30.183681890744783  7.21690619427702  -54.82175930050347  15.115091874084547  50.23405836651825  65.03459490561568  20.99191676336965  38.651427308614956  -17.748052251097207  19.001528150299944  0.000000
2.325  0.000000  0.000000  0.000000  -30.160735426843814  6.9607079812902555  -55.96050066873653  15.270411212809195  50.64207952684796  65.37278123554184  20.537856515690745  37.07896134780828  -17.591729066302015  19.060193224182537  0.000000
2.356  0.000000  0.000000  0.000000  -30.106202953079443  6.748654275280406  -56.847391886166804  15.641332651336608  50.924502163516536  65.41824870498833  20.137040750258763  35.469331779486346  -17.3712364239234  19.13061869062791  0.000000
2.387  0.000000  0.000000  0.000000  -30.03097200065605  6.561349546051713  -57.62034656075233  16.05675601549698  51.11588114744555  65.34434627437147  19.81661292878537  33.85224137642428  -17.12241270026633  19.211798813380685  0.000000
2.418  0.000000  0.000000  0.000000  -29.948900033102262  6.396006655363605  -58.32011555554265  16.481761972679458  51.23534695578403  65.22055939090212  19.52932941177499  32.229485102262615  -16.831664561807752  19.28488854470174  0.000000
2.449  0.000000  0.000000  0.000000  -29.872518705081394  6.259439789054848  -58.97311361448037  16.904510047769676  51.31778708954783  65.08737712386984  19.229537981167773  30.58918572291633  -16.492294115234746  19.343275495156355  0.000000
2.48  0.000000  0.000000  0.000000  -29.81095523191005  6.152134934463442  -59.58975230277075  17.325496985582042  51.36844186655407  64.96483704688829  18.875063303094333  28.92917800124441  -16.070942234088456  19.391997048942606  0.000000
2.511  0.000000  0.000000  0.000000  -29.762107439821182  6.067422958579001  -60.17907219659001  17.738130977779118  51.41731191472059  64.86642537486786  18.42447250143054  27.238357515531128  -15.561272371621337  19.42656448488472  0.000000
2.542  0.000000  0.000000  0.000000  -29.720394340093222  5.986634810489196  -60.74947189697196  18.123676405217765  51.47173561614436  64.80670591217464  17.8418433523199  25.51621049879753  -14.940110511238743  19.45263383000208  0.000000
2.573  0.000000  0.000000  0.000000  -29.679015429391935  5.898222216151032  -61.31244093544558  18.465270857237712  51.56066570183097  64.80553392847105  17.085681806592056  23.746800500186104  -14.191173621034102  19.47279521312795  0.000000
2.604  0.000000  0.000000  0.000000  -29.638822613820558  5.8044328164380845  -61.87733635052954  18.7608631070497  51.68982240595452  64.87992926089356  16.11110727008994  21.917180171234378  -13.265959465020995  19.49980301692035  0.000000
2.635  0.000000  0.000000  0.000000  -29.599735886487856  5.717008234792097  -62.445391018517626  19.022026208387643  51.87396633098479  65.03916213527891  14.860701269598138  20.001468958393012  -12.098449007412249  19.537777394097038  0.000000
2.666  0.000000  0.000000  0.000000  -29.553813633143736  5.636744118825299  -63.015800799999134  19.25005617067091  52.10445674887749  65.27587568626537  13.267213917638355  17.99146237230099  -10.595911981222212  19.59411555493556  0.000000
2.697  0.000000  0.000000  0.000000  -29.509242925988836  5.562908658547326  -63.55559877280616  19.443848226545285  52.382337537498316  65.56976211840595  11.26086594405899  15.857299933719796  -8.667095114837329  19.67060376953412  0.000000
2.7279999999999998  0.000000  0.000000  0.000000  -29.46661456280881  5.490383577433357  -64.0285158578237  19.592914707044848  52.6727769850217  65.8732789642652  8.804740959100018  13.603300654230603  -6.24566360788381  19.758152042156034  0.000000
2.759  0.000000  0.000000  0.000000  -29.43891599776407  5.390233958882635  -64.35853677542643  19.67723500717733  52.92276225715772  66.08839961078893  5.92210242562468  11.250457915656922  -3.29913901642632  19.851261403916375  0.000000
2.79  0.000000  0.000000  0.000000  -29.410276569491725  5.245352538421419  -64.4955741706901  19.691448097249495  53.044231507165506  66.10255400344602  2.7176984860768396  8.876115100864268  0.10919256833635499  19.926718471148426  0.000000
2.821  0.000000  0.000000  0.000000  -29.357552032723387  5.039589878740113  -64.3939832539077  19.652152882184883  52.932479790025276  65.78801820712707  -0.5964912506902311  6.595081694605785  3.866607966159996  19.984344549125794  0.000000
2.852  0.000000  0.000000  0.000000  -29.233385942383244  4.766083332445001  -64.06452860268985  19.609525983961348  52.545340077535194  65.06771890425587  -3.7743036687166165  4.5490601782768705  7.754379574320112  20.028204434650867  0.000000
2.883  0.000000  0.000000  0.000000  -28.99695785998724  4.444904810546541  -63.528935591247354  19.60325825132325  51.84174227195386  63.93401931726032  -6.555899810408886  2.848383835115581  11.563254301040159  20.101311160701215  0.000000
2.914  0.000000  0.000000  0.000000  -28.646081768334934  4.072737281842823  -62.86686836281619  19.651688963259488  50.93644503552882  62.4660649169981  -8.789727760610134  1.5700771372532794  15.065645653491618  20.226866795495205  0.000000
